HIERARCHY
ROOT Hips
{
 OFFSET 0.000000 0.000000 0.000000
 CHANNELS 6 Xposition Yposition Zposition Yrotation Xrotation Zrotation
 JOINT Chest
 {
  OFFSET 0.000000 9.585900 0.002600
  CHANNELS 3 Yrotation Xrotation Zrotation
  JOINT Chest2
  {
   OFFSET 0.000000 9.601200 -0.005300
   CHANNELS 3 Yrotation Xrotation Zrotation
   JOINT Chest3
   {
    OFFSET 0.000000 9.561800 0.000000
    CHANNELS 3 Yrotation Xrotation Zrotation
    JOINT Chest4
    {
     OFFSET 0.000000 9.552100 0.000000
     CHANNELS 3 Yrotation Xrotation Zrotation
     JOINT Neck
     {
      OFFSET 0.000000 14.453000 0.000000
      CHANNELS 3 Yrotation Xrotation Zrotation
      JOINT Head
      {
       OFFSET 0.000000 8.936500 -0.011300
       CHANNELS 3 Yrotation Xrotation Zrotation
       End Site
       {
        OFFSET 0.000000 17.073600 -0.006000
       }
      }
     }
     JOINT RightCollar
     {
      OFFSET -2.921100 9.558500 0.000000
      CHANNELS 3 Yrotation Xrotation Zrotation
      JOINT RightShoulder
      {
       OFFSET -13.519700 0.000000 0.000000
       CHANNELS 3 Yrotation Xrotation Zrotation
       JOINT RightElbow
       {
        OFFSET 0.000000 -29.696600 0.000000
        CHANNELS 3 Yrotation Xrotation Zrotation
        JOINT RightWrist
        {
         OFFSET 0.000000 -24.004700 0.000000
         CHANNELS 3 Yrotation Xrotation Zrotation
         End Site
         {
          OFFSET 0.000000 -17.728500 0.000000
         }
        }
       }
      }
     }
     JOINT LeftCollar
     {
      OFFSET 2.921100 9.558500 0.000000
      CHANNELS 3 Yrotation Xrotation Zrotation
      JOINT LeftShoulder
      {
       OFFSET 13.519700 0.000000 0.000000
       CHANNELS 3 Yrotation Xrotation Zrotation
       JOINT LeftElbow
       {
        OFFSET 0.000000 -29.696600 0.000000
        CHANNELS 3 Yrotation Xrotation Zrotation
        JOINT LeftWrist
        {
         OFFSET 0.000000 -24.004700 0.000000
         CHANNELS 3 Yrotation Xrotation Zrotation
         End Site
         {
          OFFSET 0.000000 -17.728500 0.000000
         }
        }
       }
      }
     }
    }
   }
  }
 }
 JOINT RightHip
 {
  OFFSET -7.771700 -0.012900 -0.001300
  CHANNELS 3 Yrotation Xrotation Zrotation
  JOINT RightKnee
  {
   OFFSET 0.000000 -40.869800 0.001200
   CHANNELS 3 Yrotation Xrotation Zrotation
   JOINT RightAnkle
   {
    OFFSET 0.000000 -39.717900 0.002100
    CHANNELS 3 Yrotation Xrotation Zrotation
    JOINT RightToe
    {
     OFFSET 0.000000 -4.965400 11.033500
     CHANNELS 3 Yrotation Xrotation Zrotation
     End Site
     {
      OFFSET 0.000000 -1.423100 5.872300
     }
    }
   }
  }
 }
 JOINT LeftHip
 {
  OFFSET 7.771700 -0.012900 -0.001300
  CHANNELS 3 Yrotation Xrotation Zrotation
  JOINT LeftKnee
  {
   OFFSET 0.000000 -40.869800 0.001200
   CHANNELS 3 Yrotation Xrotation Zrotation
   JOINT LeftAnkle
   {
    OFFSET 0.000000 -39.717900 0.002100
    CHANNELS 3 Yrotation Xrotation Zrotation
    JOINT LeftToe
    {
     OFFSET 0.000000 -4.965400 11.033500
     CHANNELS 3 Yrotation Xrotation Zrotation
     End Site
     {
      OFFSET 0.000000 -1.423100 5.872300
     }
    }
   }
  }
 }
}
MOTION
Frames: 15
Frame Time: 0.008333
9.971556 49.827151 48.131923 173.836069 -31.786230 -6.851571 5.955421 17.149031 5.458514 0.625376 2.014522 0.452413 1.025054 3.378371 0.791614 5.219938 15.076893 4.055441 -2.753410 12.438063 -0.659207 -4.968310 -12.673484 -0.115233 -0.956464 -2.627334 -3.322843 -1.947805 -0.684712 1.505669 98.812725 -65.910521 -113.952744 17.881522 5.576676 48.687674 -9.351248 -1.753830 -0.468198 8.175886 -0.847998 -0.441530 -118.689057 -72.403562 134.250626 7.267105 8.003490 -42.133112 -0.207586 -48.903019 9.490177 -130.933925 87.126019 -119.199930 -3.060403 -12.177078 -4.014484 -0.073788 0.573395 -0.029801 -10.661516 -52.503325 16.201080 -155.953289 80.513114 -163.071711 0.684902 -17.199109 7.077105 -0.156045 -0.691247 -0.062752
9.967819 49.833078 48.144304 173.824610 -31.779378 -6.828220 5.925549 17.215639 5.475995 0.640013 1.986232 0.431288 1.032828 3.389776 0.795691 5.218046 15.097661 4.068752 -2.773286 12.363806 -0.667878 -5.004607 -12.811099 -0.120762 -0.931928 -2.701871 -3.399007 -2.067844 -0.590658 1.291252 100.639960 -66.153032 -115.479154 17.852688 5.092204 50.180946 -9.358742 -1.818318 -0.449291 8.356832 -0.927438 -0.422693 -119.177826 -72.105692 134.681115 6.212967 8.980302 -44.626459 -0.227460 -48.915396 9.496549 -130.797571 87.124393 -119.088359 -3.078329 -12.165731 -4.013026 -0.081159 0.568468 -0.034666 -10.644529 -52.516569 16.180718 -156.026713 80.535034 -163.146044 0.661990 -17.180752 7.069937 -0.147301 -0.689202 -0.058894
9.965602 49.837740 48.157260 173.790536 -31.763588 -6.798913 5.940736 17.226718 5.476894 0.635057 1.999333 0.440244 1.037644 3.400955 0.799687 5.218190 15.116232 4.082627 -2.792878 12.289250 -0.688067 -5.054424 -12.955374 -0.121639 -0.907704 -2.792406 -3.484176 -2.178805 -0.483321 1.073843 102.533577 -66.463636 -117.038514 17.764250 4.681755 51.506602 -9.389391 -1.919192 -0.402697 8.544379 -0.999099 -0.420801 -119.493264 -71.788849 134.931167 5.068732 9.843096 -47.259335 -0.242264 -48.941004 9.507168 -130.646443 87.125187 -118.961972 -3.062058 -12.144311 -4.024556 -0.010152 0.562574 -0.035044 -10.619994 -52.536630 16.179245 -156.070805 80.551746 -163.194046 0.631461 -17.174197 7.068088 -0.143318 -0.681752 -0.056737
9.964456 49.843133 48.167522 173.767952 -31.756143 -6.775772 5.952910 17.228228 5.469026 0.627530 2.033992 0.460102 1.041603 3.406644 0.804912 5.219749 15.134625 4.095586 -2.807474 12.220073 -0.725928 -5.121682 -13.101136 -0.109105 -0.863396 -2.937880 -3.618202 -2.297952 -0.322618 0.899055 104.479694 -66.814861 -118.629022 17.629821 4.346229 52.694137 -9.394836 -1.996892 -0.428919 8.703044 -1.136787 -0.344169 -119.647057 -71.446683 134.991407 3.867328 10.561329 -50.008824 -0.313990 -48.953893 9.551752 -130.617644 87.123130 -118.992184 -3.030851 -12.109949 -4.037222 -0.153037 0.536742 -0.036064 -10.603306 -52.544075 16.175634 -156.116749 80.568740 -163.247692 0.615854 -17.176100 7.062245 -0.142038 -0.670336 -0.052330
9.965107 49.849474 48.174919 173.749023 -31.758444 -6.757689 5.960369 17.265819 5.483952 0.628313 2.039867 0.462284 1.045940 3.389690 0.792055 5.220765 15.144059 4.101571 -2.832155 12.177624 -0.716748 -5.169936 -13.236975 -0.130926 -0.834847 -3.017015 -3.685143 -2.392623 -0.205244 0.687956 106.461391 -67.173170 -120.245986 17.459194 4.076724 53.774459 -9.415565 -2.065913 -0.402665 8.881497 -1.270809 -0.285994 -119.678716 -71.080129 134.885085 2.637671 11.111254 -52.840378 -0.303112 -48.955609 9.545521 -130.398093 87.116708 -118.780289 -3.003501 -12.108133 -4.043797 -0.091473 0.543633 -0.035143 -10.579801 -52.538722 16.162607 -156.166391 80.585989 -163.298911 0.615313 -17.188124 7.055134 -0.138970 -0.656529 -0.053548
9.965189 49.855394 48.180685 173.706007 -31.760539 -6.715640 5.973237 17.320497 5.506198 0.630867 2.051342 0.466356 1.059574 3.349314 0.753287 5.226373 15.189035 4.139376 -2.861470 12.100118 -0.741282 -5.222590 -13.370694 -0.151656 -0.800335 -3.130297 -3.782561 -2.478648 -0.098171 0.481392 108.457175 -67.519202 -121.876018 17.269828 3.851383 54.764940 -9.443715 -2.210419 -0.375912 9.065340 -1.385507 -0.232783 -119.628976 -70.691550 134.652485 1.410842 11.485887 -55.716055 -0.298813 -48.958062 9.561010 -129.905584 87.086094 -118.302803 -3.067813 -12.119410 -4.039326 -0.073081 0.548714 -0.041898 -10.515255 -52.539410 16.127158 -156.182361 80.596791 -163.314026 0.622916 -17.188862 7.049227 -0.140939 -0.654486 -0.052449
9.967379 49.861189 48.184716 173.682671 -31.761163 -6.687701 5.977571 17.343023 5.507418 0.632318 2.055148 0.467754 1.059855 3.362097 0.761334 5.231592 15.199768 4.143699 -2.893459 12.038263 -0.754441 -5.266062 -13.499254 -0.172800 -0.760133 -3.219693 -3.866366 -2.551936 -0.003382 0.277987 110.458603 -67.840028 -123.517574 17.084554 3.646158 55.682083 -9.461890 -2.316927 -0.356825 9.236042 -1.532449 -0.148164 -119.529174 -70.282171 134.336263 0.213849 11.689589 -58.599658 -0.301819 -48.959379 9.577647 -129.618401 87.068555 -118.027419 -3.140624 -12.134492 -4.034141 -0.106299 0.554068 -0.045833 -10.474974 -52.539135 16.099737 -156.261094 80.611041 -163.388571 0.616064 -17.191722 7.041690 -0.145717 -0.648305 -0.051655
9.973517 49.866280 48.188103 173.665962 -31.755887 -6.678239 5.984054 17.351159 5.518887 0.635034 2.052348 0.463182 1.057053 3.382281 0.774263 5.241769 15.196704 4.147866 -2.922098 11.986838 -0.765669 -5.318070 -13.621402 -0.184021 -0.724644 -3.290787 -3.941319 -2.609717 0.083779 0.077705 112.459771 -68.122051 -125.175175 16.917028 3.443803 56.545117 -9.480351 -2.382223 -0.351351 9.397904 -1.712840 -0.032038 -119.396516 -69.851241 133.953562 -0.917814 11.726159 -61.455113 -0.325156 -48.966858 9.597580 -129.681705 87.069786 -118.124994 -3.038775 -12.127591 -4.056592 -0.085244 0.554097 -0.034532 -10.462753 -52.543195 16.102697 -156.354687 80.621569 -163.475704 0.601821 -17.196269 7.036885 -0.137830 -0.642015 -0.055622
9.980877 49.870133 48.190419 173.647419 -31.745490 -6.666092 5.995577 17.343831 5.519625 0.633601 2.057650 0.468725 1.055327 3.410331 0.807962 5.247754 15.185671 4.134144 -2.957230 11.929229 -0.782266 -5.368823 -13.739885 -0.192739 -0.690867 -3.361802 -4.020399 -2.653797 0.165883 -0.121566 114.439631 -68.354285 -126.834887 16.773597 3.225972 57.383379 -9.511971 -2.453676 -0.337099 9.564330 -1.887470 0.086630 -119.242641 -69.401767 133.515059 -1.944660 11.612300 -64.232594 -0.340623 -48.979225 9.611478 -129.768295 87.070056 -118.240198 -2.945916 -12.129227 -4.078004 -0.066186 0.560465 -0.025163 -10.449879 -52.554678 16.108672 -156.336929 80.622483 -163.455641 0.603008 -17.197514 7.038375 -0.137665 -0.640601 -0.062363
9.988007 49.872217 48.191935 173.626628 -31.727223 -6.642896 6.001660 17.340588 5.522037 0.633216 2.068388 0.484470 1.057181 3.399913 0.793363 5.252611 15.181319 4.130103 -2.980313 11.877354 -0.785070 -5.420546 -13.852969 -0.201480 -0.650838 -3.422078 -4.084457 -2.687996 0.240014 -0.318998 116.376165 -68.531052 -128.474754 16.655102 2.977432 58.232741 -9.551428 -2.519946 -0.298733 9.732602 -2.054755 0.209365 -119.090875 -68.947693 133.053378 -2.849612 11.397783 -66.879443 -0.332375 -49.003544 9.615347 -129.679500 87.053616 -118.152599 -2.984424 -12.147198 -4.076748 -0.071501 0.569781 -0.028941 -10.469050 -52.571300 16.143812 -156.237651 80.616205 -163.387644 0.601955 -17.189342 7.045115 -0.147168 -0.648023 -0.065611
9.996425 49.873420 48.191916 173.612826 -31.708683 -6.622957 6.004179 17.336222 5.525704 0.635557 2.058213 0.469517 1.055599 3.403923 0.798674 5.253904 15.177332 4.124396 -2.998944 11.826513 -0.779536 -5.461990 -13.956945 -0.213668 -0.628554 -3.451243 -4.113394 -2.688814 0.272501 -0.529984 118.273174 -68.653093 -130.096894 16.567962 2.700263 59.120150 -9.585912 -2.571175 -0.262185 9.886219 -2.234614 0.354706 -118.974373 -68.514242 132.605480 -3.642335 11.141880 -69.350353 -0.320293 -49.030575 9.610252 -129.746513 87.037939 -118.213323 -3.024699 -12.161992 -4.079086 -0.071333 0.574701 -0.029817 -10.481041 -52.591118 16.167626 -156.147623 80.607028 -163.320539 0.609089 -17.182567 7.051902 -0.155019 -0.655799 -0.070635
10.004427 49.873031 48.191558 173.595174 -31.682703 -6.592661 6.001215 17.330209 5.519537 0.635558 2.057749 0.469300 1.059005 3.394885 0.787558 5.253543 15.182779 4.134810 -3.019740 11.767244 -0.792152 -5.497830 -14.049796 -0.228971 -0.571655 -3.537451 -4.193731 -2.698645 0.341149 -0.702096 120.161921 -68.724616 -131.728850 16.532628 2.408895 60.061754 -9.622257 -2.638932 -0.243154 10.022005 -2.406569 0.514573 -118.934071 -68.134970 132.218474 -4.335959 10.890647 -71.610074 -0.286108 -49.067133 9.600859 -129.602794 87.007466 -118.049242 -3.160240 -12.199118 -4.053267 -0.087262 0.580787 -0.043832 -10.485386 -52.619074 16.185425 -156.048132 80.597204 -163.246693 0.608705 -17.176930 7.057897 -0.140954 -0.659688 -0.068586
10.013491 49.872057 48.190548 173.581992 -31.655115 -6.567053 5.996088 17.322124 5.512338 0.635268 2.056102 0.468735 1.058630 3.392633 0.786749 5.253119 15.178115 4.131988 -3.039714 11.715333 -0.803807 -5.504125 -14.070439 -0.241563 -0.525694 -3.617298 -4.263626 -2.682556 0.393193 -0.873240 122.063856 -68.744960 -133.387803 16.558723 2.118202 61.067699 -9.640054 -2.675298 -0.240068 10.106313 -2.596588 0.702158 -119.011392 -67.842740 131.942552 -4.943645 10.682136 -73.628544 -0.262674 -49.106618 9.597046 -129.564700 86.978336 -117.997675 -3.270173 -12.225547 -4.036449 -0.099745 0.583660 -0.050899 -10.498607 -52.647110 16.210259 -155.940108 80.586484 -163.164671 0.605405 -17.174813 7.064749 -0.134600 -0.661139 -0.068818
10.025640 49.872010 48.188039 173.569268 -31.637653 -6.558006 5.998736 17.328033 5.521030 0.628154 2.084171 0.482326 1.064409 3.361040 0.770775 5.252526 15.173715 4.128774 -3.059916 11.669723 -0.813947 -5.510124 -14.097502 -0.251526 -0.497601 -3.685970 -4.312529 -2.643483 0.408997 -1.056594 123.963141 -68.709897 -135.057139 16.629761 1.833119 62.143692 -9.660336 -2.718819 -0.234721 10.162948 -2.775453 0.902391 -119.230036 -67.650956 131.798984 -5.482560 10.521608 -75.385291 -0.253021 -49.134620 9.601706 -129.745471 86.965141 -118.173905 -3.262590 -12.234820 -4.045317 -0.089122 0.579703 -0.045755 -10.528650 -52.663337 16.258957 -155.812373 80.569266 -163.062883 0.616866 -17.173957 7.075638 -0.139145 -0.667889 -0.076801
10.037815 49.872640 48.184372 173.562734 -31.626581 -6.553096 5.992705 17.377101 5.546836 0.633904 2.055446 0.468095 1.056339 3.391453 0.785681 5.243554 15.178089 4.127233 -3.073907 11.592735 -0.845798 -5.590829 -14.227700 -0.247745 -0.455985 -3.799265 -4.382479 -2.605402 0.408746 -1.245307 125.859305 -68.629104 -136.731938 16.721102 1.542508 63.302315 -9.686645 -2.839058 -0.231732 10.218006 -2.912996 1.095965 -119.593774 -67.536669 131.786655 -5.946930 10.389389 -76.872975 -0.255689 -49.154482 9.610530 -130.089511 86.963937 -118.515438 -3.261441 -12.237609 -4.057186 -0.084534 0.568997 -0.041926 -10.556090 -52.672081 16.299303 -155.737175 80.555391 -163.004864 0.620400 -17.176076 7.075539 -0.147098 -0.669707 -0.075772
